<svg version="1.1" id="Uploaded to svgrepo.com" xmlns="http://www.w3.org/2000/svg" width="800" height="800" viewBox="0 0 32 32" xml:space="preserve"><style>.open_een{fill:#0b1719}</style><path class="open_een" d="M21.086 24.002c-.354 0-.713-.077-1.052-.236a2.42 2.42 0 0 1-1.407-2.212c0-.818.406-1.578 1.088-2.032l3.185-2.123a.5.5 0 0 0 .222-.394.5.5 0 0 0-.187-.413l-2.747-2.201a.5.5 0 0 1 .625-.781l2.748 2.202c.378.304.582.755.56 1.237a1.49 1.49 0 0 1-.666 1.182l-3.185 2.123a1.44 1.44 0 0 0-.643 1.2c0 .574.311 1.063.831 1.307s1.094.17 1.534-.198l6.402-4.251c.37-.312.606-.817.606-1.354s-.236-1.043-.649-1.388c-.043-.034-5.001-4.018-7.786-6.359a1.8 1.8 0 0 0-2.695.439l-2.78 12.68a.5.5 0 0 1-.053.138 2.8 2.8 0 0 1-4.246.776c-2.775-2.335-7.726-6.312-7.775-6.352a2.805 2.805 0 0 1-.007-4.315l6.402-4.252c.691-.579 1.685-.711 2.555-.303a2.42 2.42 0 0 1 1.407 2.212c0 .818-.406 1.578-1.088 2.032L9.08 14.503a.498.498 0 0 0-.043.801l2.782 2.312a.499.499 0 1 1-.639.769l-2.782-2.312a1.49 1.49 0 0 1-.539-1.232c.025-.479.268-.904.666-1.17l3.205-2.137c.402-.269.643-.717.643-1.2 0-.574-.311-1.062-.831-1.307a1.41 1.41 0 0 0-1.534.198l-6.402 4.252c-.37.311-.606.817-.606 1.354s.236 1.043.649 1.387c.043.034 5.001 4.018 7.786 6.359.411.346.951.49 1.478.394a1.8 1.8 0 0 0 1.217-.833l2.78-12.68a.5.5 0 0 1 .053-.138 2.8 2.8 0 0 1 4.246-.776c2.775 2.335 7.726 6.312 7.775 6.352a2.807 2.807 0 0 1 .007 4.316l-6.402 4.251a2.33 2.33 0 0 1-1.503.539"/><path class="open_een" d="M21.086 24.002c-.354 0-.713-.077-1.052-.236a2.42 2.42 0 0 1-1.407-2.212c0-.818.406-1.578 1.088-2.032l3.185-2.123a.5.5 0 0 0 .222-.394.5.5 0 0 0-.187-.413l-2.747-2.201a.5.5 0 0 1 .625-.781l2.748 2.202c.378.304.582.755.56 1.237a1.49 1.49 0 0 1-.666 1.182l-3.185 2.123a1.44 1.44 0 0 0-.643 1.2c0 .574.311 1.063.831 1.307s1.094.17 1.534-.198l6.402-4.251c.37-.312.606-.817.606-1.354s-.236-1.043-.649-1.388c-.043-.034-5.001-4.018-7.786-6.359a1.8 1.8 0 0 0-2.695.439l-2.78 12.68a.5.5 0 0 1-.053.138 2.8 2.8 0 0 1-4.246.776c-2.775-2.335-7.726-6.312-7.775-6.352a2.805 2.805 0 0 1-.007-4.315l6.402-4.252c.691-.579 1.685-.711 2.555-.303a2.42 2.42 0 0 1 1.407 2.212c0 .818-.406 1.578-1.088 2.032L9.08 14.503a.498.498 0 0 0-.043.801l2.782 2.312a.499.499 0 1 1-.639.769l-2.782-2.312a1.49 1.49 0 0 1-.539-1.232c.025-.479.268-.904.666-1.17l3.205-2.137c.402-.269.643-.717.643-1.2 0-.574-.311-1.062-.831-1.307a1.41 1.41 0 0 0-1.534.198l-6.402 4.252c-.37.311-.606.817-.606 1.354s.236 1.043.649 1.387c.043.034 5.001 4.018 7.786 6.359.411.346.951.49 1.478.394a1.8 1.8 0 0 0 1.217-.833l2.78-12.68a.5.5 0 0 1 .053-.138 2.8 2.8 0 0 1 4.246-.776c2.775 2.335 7.726 6.312 7.775 6.352a2.807 2.807 0 0 1 .007 4.316l-6.402 4.251a2.33 2.33 0 0 1-1.503.539"/></svg>